# xmcd
#
# Track frame offsets:
# 180
# 19757
# 35704
# 56196
# 71730
# 90180
# 105513
# 129034
# 147598
# 165624
#
# Disc length: 2469 seconds
#
#
# Revision: 0
# Processed by: cddbd v1.5.2PL0 Copyright (c) Steve Scherf et al.
# Submitted via: FreeRIP 2.90 
#
DISCID=8309a30a
DTITLE=Joe Charron - Train Wreck on the Dance Floor
DYEAR=1994
DGENRE=country
TTITLE0=Women Don't Mix
TTITLE1=Jacklight
TTITLE2=Ladies and Escorts
TTITLE3=As Time Passes By
TTITLE4=You
TTITLE5=Train Wreck on the Dance Floor
TTITLE6=When Your Lover Makes You Cry
TTITLE7=Ripples
TTITLE8=Three Point Hitch
TTITLE9=Waltzing Away
EXTD=
EXTT0=
EXTT1=
EXTT2=
EXTT3=
EXTT4=
EXTT5=
EXTT6=
EXTT7=
EXTT8=
EXTT9=
PLAYORDER=
